<?xml version="1.0" standalone="no"?><!DOCTYPE svg PUBLIC "-//W3C//DTD SVG 1.1//EN" "http://www.w3.org/Graphics/SVG/1.1/DTD/svg11.dtd"><svg t="1649229692199" class="icon" viewBox="0 0 1024 1024" version="1.1" xmlns="http://www.w3.org/2000/svg" p-id="735" xmlns:xlink="http://www.w3.org/1999/xlink" width="32" height="32"><defs><</defs><path d="M880.6912 457.1648l-282.7264-217.8048a133.53472 133.53472 0 0 0-164.4544 0.9728L158.8224 457.3184c-32.3072 25.4976-50.8416 63.744-50.8416 104.9088v232.3968c0 73.728 59.9552 133.6832 133.7344 133.6832h557.3632c73.728 0 133.6832-59.9552 133.6832-133.6832v-231.5264c0-41.216-19.456-80.7936-52.0704-105.9328z m-294.144 430.1824H427.3664v-175.9744c0-14.2848 11.6224-25.856 25.9072-25.856h107.4176c14.2848 0 25.9072 11.6224 25.9072 25.856v175.9744z m305.2544-92.7232c0 51.1488-41.6256 92.7232-92.7232 92.7232h-171.5712v-175.9744c0-36.864-30.0032-66.816-66.8672-66.816H453.2224c-36.864 0-66.8672 30.0032-66.8672 66.816v175.9744H241.7152c-51.1488 0-92.7744-41.6256-92.7744-92.7232v-232.3968c0-28.5696 12.8512-55.0912 35.2768-72.7552l274.6368-216.9344c16.8448-13.312 37.1712-20.0192 57.4976-20.0192a92.672 92.672 0 0 1 56.576 19.3024l282.7264 217.8048c22.6304 17.408 36.1472 44.9024 36.1472 73.472v231.5264z"  p-id="736"></path><path d="M937.216 369.5616l-337.5104-240.896c-40.7552-31.3856-120.1152-40.0896-165.5808-4.864L87.7056 387.584a20.49024 20.49024 0 0 0-3.8912 28.7232 20.5568 20.5568 0 0 0 16.3328 8.0896c4.3008 0 8.704-1.3824 12.3904-4.1984l346.5728-263.8848c26.624-20.6336 86.1696-18.0224 115.8656 5.0176l0.6656 0.512 337.8176 241.1008c9.216 6.5536 22.016 4.4544 28.5696-4.7616 6.5024-9.2672 4.4032-22.016-4.8128-28.6208z"  p-id="737"></path></svg>
